# AST/ASF file generated using VICON BodyLanguage
# -----------------------------------------------
:version 1.10
:name VICON
:units
  mass 1.0
  length 0.45
  angle deg
:documentation
   .ast/.asf automatically generated from VICON data using
   VICON BodyBuilder and BodyLanguage model FoxedUp or BRILLIANT.MOD
:root
   order TX TY TZ RX RY RZ
   axis XYZ
   position 0 0 0  
   orientation 0 0 0 
:bonedata
  begin
     id 1 
     name lhipjoint
     direction 0.521452 -0.77106 0.36545 
     length 2.0933 
     axis 0 0 0  XYZ
  end
  begin
     id 2 
     name lfemur
     direction 0.34202 -0.939693 0  
     length 6.83441  
     axis 0 0 20  XYZ
    dof rx ry rz
    limits (-160.0 20.0)
           (-70.0 70.0)
           (-60.0 70.0)
  end
  begin
     id 3 
     name ltibia
     direction 0.34202 -0.939693 0   
     length 7.28749   
     axis 0 0 20   XYZ
    dof rx
    limits (-10.0 170.0)
  end
  begin
     id 4 
     name lfoot
     direction 0.100608 -0.276418 0.955757   
     length 1.52195   
     axis -90 7.62852e-016 20   XYZ
    dof rx rz
    limits (-45.0 90.0)
           (-70.0 20.0)
  end
  begin
     id 5 
     name ltoes
     direction 1.53558e-011 -4.21907e-011 1   
     length 0.770459   
     axis -90 7.62852e-016 20   XYZ
    dof rx
    limits (-90.0 20.0)
  end
  begin
     id 6 
     name rhipjoint
     direction -0.488071 -0.788702 0.373812   
     length 2.04648  
     axis 0 0 0  XYZ 
  end
  begin
     id 7 
     name rfemur
     direction -0.34202 -0.939693 0   
     length 6.92583   
     axis 0 0 -20   XYZ
    dof rx ry rz
    limits (-160.0 20.0)
           (-70.0 70.0)
           (-70.0 60.0)
  end
  begin
     id 8 
     name rtibia
     direction -0.34202 -0.939693 0   
     length 7.41043   
     axis 0 0 -20   XYZ
    dof rx
    limits (-10.0 170.0)
 end
 begin
     id 9 
     name rfoot
     direction -0.0784433 -0.215521 0.973343   
     length 1.67708  
     axis -90 -7.62852e-016 -20   XYZ
    dof rx rz
    limits (-45.0 90.0)
           (-20.0 70.0)
  end
  begin
     id 10 
     name rtoes
     direction -1.53551e-011 -4.21842e-011 1   
     length 0.849787   
     axis -90 -7.62852e-016 -20   XYZ
    dof rx
    limits (-90.0 20.0)
  end
  begin
     id 11 
     name lowerback
     direction -0.0122332 0.997575 -0.0685192   
     length 1.98724   
     axis 0 0 0   XYZ
    dof rx ry rz
    limits (-20.0 45.0)
           (-30.0 30.0)
           (-30.0 30.0)
  end
  begin
     id 12 
     name upperback
     direction 0.0182347 0.999724 -0.0148421   
     length 1.99029   
     axis 0 0 0   XYZ
    dof rx ry rz
    limits (-20.0 45.0)
           (-30.0 30.0)
           (-30.0 30.0)
  end
  begin
     id 13 
     name thorax
     direction 0.0242908 0.99956 0.0170184   
     length 1.99573   
     axis 0 0 0   XYZ
    dof rx ry rz
    limits (-20.0 45.0)
           (-30.0 30.0)
           (-30.0 30.0)
  end
  begin
     id 14 
     name lowerneck
     direction 0.0654488 0.985533 0.156338   
     length 1.4285   
     axis 0 0 0   XYZ
    dof rx ry rz
    limits (-20.0 45.0)
           (-30.0 30.0)
           (-30.0 30.0)
  end
  begin
     id 15 
     name upperneck
     direction -0.02953 0.998556 -0.0448842   
     length 1.44709   
     axis 0 0 0   XYZ
    dof rx ry rz
    limits (-20.0 45.0)
           (-30.0 30.0)
           (-30.0 30.0)
  end
  begin
     id 16
     name head
     direction -0.0155588 0.999386 -0.0314063  
     length 1.44689  
     axis 0 0 0   XYZ
    dof rx ry rz
    limits (-20.0 45.0)
           (-30.0 30.0)
           (-30.0 30.0)
  end
  begin
     id 17 
     name lclavicle
     direction 0.968229 0.236071 -0.0824755  
     length 3.60593  
     axis 0 0 0   XYZ
    dof ry rz
    limits (-20.0 10.0)
           (0.0 20.0)
  end
  begin
     id 18 
     name lhumerus
     direction 1 -4.48968e-011 7.8138e-029   
     length 5.06035   
     axis 180 -30 -90   XYZ
    dof rx ry rz
    limits (-60.0 90.0)
           (-90.0 90.0)
           (-90.0 90.0)
  end
  begin
     id 19
     name lradius
     direction 1 -4.48967e-011 9.02887e-028   
     length 3.1478   
     axis 180 -30 -90   XYZ
    dof rx
    limits (-10.0 170.0)
  end
  begin
     id 20
     name lwrist
     direction 1 -4.48961e-011 7.20928e-028   
     length 1.5739   
     axis -5.52449e-016 90 90   XYZ
    dof ry
    limits (-180.0 0.0)
 end
  begin
     id 21 
     name lhand
     direction 1 -4.48972e-011 1.44186e-027   
     length 0.606747   
     axis -9.20027e-016 90 90   XYZ
    dof rx rz
    limits (-90.0 90.0)
           (-45.0 45.0)
  end
  begin
     id 22 
     name lfingers
     direction 1 -4.48943e-011 2.88371e-027   
     length 0.489175   
     axis -1.84005e-015 90 90   XYZ
    dof rx
    limits (0.0 90.0)
  end
  begin
     id 23
     name lthumb
     direction 0.707107 -6.34917e-011 0.707107   
     length 0.70236   
     axis -90 45 2.85299e-015   XYZ
    dof rx rz
    limits (-45.0 45.0)
           (-45.0 45.0)
  end
  begin
     id 24 
     name rclavicle
     direction -0.978165 0.207816 0.0022268   
     length 3.35425  
     axis 0 0 0   XYZ 
    dof ry rz
    limits (-10.0 20.0)
           (-20.0 0.0)
  end
  begin
     id 25 
     name rhumerus
     direction -1 -4.48964e-011 -4.02159e-027  
     length 5.12273   
     axis 180 30 90   XYZ
    dof rx ry rz
    limits (-90.0 60.0)
           (-90.0 90.0)
           (-90.0 90.0)
  end
  begin
     id 26 
     name rradius
     direction -1 -4.48966e-011 1.62746e-027   
     length 3.422   
     axis 180 30 90   XYZ
    dof rx
    limits (-10.0 170.0)
  end
  begin
     id 27 
     name rwrist
     direction -1 -4.4896e-011 7.20928e-028   
     length 1.711   
     axis -5.52449e-016 -90 -90   XYZ
    dof ry
    limits (-180.0 0.0)
  end
  begin
     id 28
     name rhand
     direction -1 -4.48979e-011 1.44186e-027   
     length 0.704599   
     axis -9.20027e-016 -90 -90   XYZ
    dof rx rz
    limits (-90.0 90.0)
           (-45.0 45.0)
  end
  begin
     id 29
     name rfingers
     direction -1 -4.48962e-011 2.88371e-027   
     length 0.568066   
     axis -1.84005e-015 -90 -90   XYZ
    dof rx
    limits (0.0 90.0)
  end
  begin
     id 30
     name rthumb
     direction -0.707107 -6.34949e-011 0.707107   
     length 0.815633   
     axis -90 -45 -2.85299e-015   XYZ
    dof rx rz
    limits (-45.0 45.0)
           (-45.0 45.0)
  end
:hierarchy
  begin
    root lhipjoint rhipjoint lowerback
    lhipjoint lfemur
    lfemur ltibia
    ltibia lfoot
    lfoot ltoes
    rhipjoint rfemur
    rfemur rtibia
    rtibia rfoot
    rfoot rtoes
    lowerback upperback
    upperback thorax
    thorax lowerneck lclavicle rclavicle
    lowerneck upperneck
    upperneck head
    lclavicle lhumerus
    lhumerus lradius
    lradius lwrist
    lwrist lhand lthumb
    lhand lfingers
    rclavicle rhumerus
    rhumerus rradius
    rradius rwrist
    rwrist rhand rthumb
    rhand rfingers
  end

#!OML:ASF E:\id_vita\Project 1\Capture day 1\Session 1\Male1.ASF
:FULLY-SPECIFIED
:DEGREES
492
root 19.2709 2.79204 4.52569 30.768 88.8849 60.3652
lowerback 41.7498 -4.10981 -17.1211
upperback 14.7584 -9.52365 2.9821
thorax -0.0118584 -5.14855 15.0347
lowerneck -1.21063 -19.3462 -13.8359
upperneck -3.59654 -25.9289 18.1773
head 3.29713 -12.8861 5.77313
rclavicle 1.13804e-013 -6.16232e-015
rhumerus -33.8879 11.3878 -76.2897
rradius 41.6964
rwrist 18.0383
rhand -46.1209 -94.8216
rfingers 7.12502
rthumb -18.862 65.7161
lclavicle 1.13804e-013 -6.16232e-015
lhumerus 30.2669 -36.4386 21.5154
lradius 45.7191
lwrist 25.8224
lhand 5.30811 46.0431
lfingers 7.12502
lthumb 30.6638 73.5081
rfemur -103.144 -15.1546 43.3382
rtibia 94.5675
rfoot 5.72576 15.3783
rtoes -9.85225
lfemur -98.1725 18.3263 -33.3966
ltibia 78.6806
lfoot 29.6574 8.32862
ltoes 41.8394
493
root 19.2711 2.79281 4.52535 28.9274 88.9276 58.5096
lowerback 41.7411 -4.13069 -17.0505
upperback 14.7687 -9.5181 2.98246
thorax -0.0128617 -5.14174 14.9977
lowerneck -1.24494 -19.3729 -13.7973
upperneck -3.57668 -25.9644 18.1802
head 3.30915 -12.9018 5.75992
rclavicle -1.92821e-014 -5.30755e-014
rhumerus -33.8343 11.2932 -76.2955
rradius 41.6581
rwrist 17.9418
rhand -45.9873 -94.7704
rfingers 7.12502
rthumb -18.7335 65.6525
lclavicle -1.92821e-014 -5.30755e-014
lhumerus 30.3492 -36.4683 21.4284
lradius 45.7302
lwrist 25.8481
lhand 5.23711 46.0643
lfingers 7.12502
lthumb 30.5961 73.542
rfemur -103.143 -15.1618 43.3794
rtibia 94.5634
rfoot 5.6917 15.3748
rtoes -9.92039
lfemur -98.1867 18.3102 -33.3524
ltibia 78.6756
lfoot 29.6706 8.34172
ltoes 41.9378
494
root 19.2714 2.79344 4.52513 27.1346 88.9649 56.7002
lowerback 41.7412 -4.14808 -16.9999
upperback 14.7676 -9.51934 2.99006
thorax -0.022399 -5.13904 14.9822
lowerneck -1.27851 -19.3974 -13.755
upperneck -3.55036 -25.9959 18.1418
head 3.31557 -12.9156 5.73615
rclavicle 1.08735e-013 -1.43125e-013
rhumerus -33.7976 11.2287 -76.2915
rradius 41.621
rwrist 17.8917
rhand -45.9016 -94.7152
rfingers 7.12502
rthumb -18.6511 65.5894
lclavicle 1.08735e-013 -1.43125e-013
lhumerus 30.391 -36.4965 21.3762
lradius 45.7385
lwrist 25.8633
lhand 5.19937 46.0718
lfingers 7.12502
lthumb 30.5601 73.5561
rfemur -103.147 -15.1645 43.4285
rtibia 94.5629
rfoot 5.65652 15.357
rtoes -10.1284
lfemur -98.2073 18.2961 -33.3148
ltibia 78.6748
lfoot 29.6915 8.33566
ltoes 42.0075
495
root 19.2718 2.79369 4.52505 26.4704 88.981 56.0271
lowerback 41.7395 -4.15572 -16.9786
upperback 14.7662 -9.52061 2.98847
thorax -0.0274251 -5.13776 14.9703
lowerneck -1.31989 -19.4245 -13.6896
upperneck -3.5126 -26.0298 18.0689
head 3.31874 -12.9302 5.69949
rclavicle 2.5842e-015 -1.17283e-014
rhumerus -33.7837 11.1789 -76.2912
rradius 41.5715
rwrist 17.9389
rhand -45.909 -94.7227
rfingers 7.12502
rthumb -18.6582 65.5975
lclavicle 2.5842e-015 -1.17283e-014
lhumerus 30.4163 -36.5281 21.337
lradius 45.7516
lwrist 25.8659
lhand 5.17975 46.0623
lfingers 7.12502
lthumb 30.5414 73.5501
rfemur -103.152 -15.1648 43.4558
rtibia 94.5667
rfoot 5.62745 15.3351
rtoes -10.3518
lfemur -98.2239 18.2915 -33.3083
ltibia 78.6806
lfoot 29.7093 8.31115
ltoes 42.019
496
root 19.2722 2.79346 4.52513 25.9414 88.9865 55.505
lowerback 41.7357 -4.15729 -16.9537
upperback 14.7756 -9.51136 2.97209
thorax -0.025468 -5.13058 14.9357
lowerneck -1.37211 -19.4579 -13.585
upperneck -3.46562 -26.0719 17.9798
head 3.32012 -12.9485 5.65205
rclavicle -1.34279e-013 1.20066e-013
rhumerus -33.7841 11.1175 -76.3095
rradius 41.5146
rwrist 18.0348
rhand -45.9609 -94.7632
rfingers 7.12502
rthumb -18.7081 65.6428
lclavicle -1.34279e-013 1.20066e-013
lhumerus 30.4629 -36.5698 21.2779
lradius 45.7734
lwrist 25.8673
lhand 5.15118 46.0427
lfingers 7.12502
lthumb 30.5142 73.5356
rfemur -103.144 -15.1649 43.4752
rtibia 94.571
rfoot 5.60719 15.3118
rtoes -10.4666
lfemur -98.2316 18.3018 -33.3101
ltibia 78.6933
lfoot 29.7228 8.27133
ltoes 41.9752
497
root 19.2723 2.7929 4.52538 24.0795 88.9969 53.662
lowerback 41.7339 -4.15823 -16.8959
upperback 14.7967 -9.48655 2.94888
thorax -0.0230907 -5.11317 14.872
lowerneck -1.42831 -19.4962 -13.4571
upperneck -3.41407 -26.1215 17.8998
head 3.323 -12.9706 5.60288
rclavicle -3.57812e-015 5.96354e-016
rhumerus -33.7835 11.0284 -76.3452
rradius 41.4646
rwrist 18.1088
rhand -45.9916 -94.7835
rfingers 7.12502
rthumb -18.7377 65.666
lclavicle -3.57812e-015 5.96354e-016
lhumerus 30.5553 -36.6254 21.174
lradius 45.804
lwrist 25.8882
lhand 5.10727 46.0287
lfingers 7.12502
lthumb 30.4723 73.5294
rfemur -103.118 -15.1627 43.5155
rtibia 94.5713
rfoot 5.59452 15.288
rtoes -10.4942
lfemur -98.2345 18.3249 -33.2866
ltibia 78.7093
lfoot 29.7343 8.23085
ltoes 41.92
498
root 19.2722 2.79239 4.52565 20.7323 89.0193 50.3304
lowerback 41.7355 -4.16408 -16.8074
upperback 14.8187 -9.45551 2.93104
thorax -0.0277358 -5.09046 14.7979
lowerneck -1.47692 -19.5322 -13.339
upperneck -3.36266 -26.1699 17.84
head 3.32876 -12.9923 5.56087
rclavicle 9.08446e-014 -9.58142e-014
rhumerus -33.7789 10.9245 -76.3814
rradius 41.4116
rwrist 18.2091
rhand -46.0509 -94.8586
rfingers 7.12502
rthumb -18.7947 65.7466
lclavicle 9.08446e-014 -9.58142e-014
lhumerus 30.6782 -36.6892 21.0362
lradius 45.839
lwrist 25.9331
lhand 5.05644 46.0281
lfingers 7.12502
lthumb 30.4238 73.5378
rfemur -103.091 -15.1598 43.5851
rtibia 94.5656
rfoot 5.58992 15.27
rtoes -10.5039
lfemur -98.2408 18.3463 -33.2313
ltibia 78.7214
lfoot 29.7458 8.21334
ltoes 41.909
499
root 19.2722 2.79218 4.52582 16.6942 89.0511 46.2891
lowerback 41.7369 -4.17774 -16.7104
upperback 14.8307 -9.4321 2.92535
thorax -0.0410474 -5.0711 14.7366
lowerneck -1.51406 -19.5596 -13.252
upperneck -3.31307 -26.2079 17.794
head 3.33672 -13.0091 5.52837
rclavicle -7.95139e-016 -4.13472e-014
rhumerus -33.771 10.8248 -76.4018
rradius 41.3424
rwrist 18.3918
rhand -46.1855 -95.0407
rfingers 7.12502
rthumb -18.9241 65.9412
lclavicle -7.95139e-016 -4.13472e-014
lhumerus 30.7902 -36.7482 20.9043
lradius 45.8726
lwrist 25.9853
lhand 4.99745 46.0387
lfingers 7.12502
lthumb 30.3675 73.5588
rfemur -103.085 -15.1563 43.6741
rtibia 94.5544
rfoot 5.59632 15.2604
rtoes -10.5396
lfemur -98.258 18.3503 -33.1597
ltibia 78.7234
lfoot 29.7587 8.23249
ltoes 41.9611
500
root 19.2724 2.79227 4.52585 13.9178 89.0761 43.4863
lowerback 41.7263 -4.1928 -16.6414
upperback 14.8329 -9.42186 2.92403
thorax -0.0519333 -5.0607 14.6978
lowerneck -1.55339 -19.579 -13.1895
upperneck -3.26061 -26.2347 17.7467
head 3.34715 -13.0198 5.49932
rclavicle 1.0635e-013 -3.45885e-014
rhumerus -33.7569 10.7298 -76.4061
rradius 41.2738
rwrist 18.5993
rhand -46.331 -95.2139
rfingers 7.12502
rthumb -19.064 66.1282
lclavicle 1.0635e-013 -3.45885e-014
lhumerus 30.8706 -36.7933 20.7964
lradius 45.9044
lwrist 26.0308
lhand 4.92508 46.0587
lfingers 7.12502
lthumb 30.2985 73.5915
rfemur -103.11 -15.1486 43.7464
rtibia 94.5395
rfoot 5.61278 15.2639
rtoes -10.6067
lfemur -98.2869 18.3366 -33.1124
ltibia 78.7139
lfoot 29.7715 8.27013
ltoes 42.0288
501
root 19.2726 2.79252 4.52575 13.7767 89.0829 43.3046
lowerback 41.6986 -4.20151 -16.6182
upperback 14.8307 -9.42134 2.91498
thorax -0.0518566 -5.0586 14.6746
lowerneck -1.60338 -19.5935 -13.1334
upperneck -3.20284 -26.2543 17.6937
head 3.35974 -13.0262 5.4692
rclavicle 4.47266e-015 2.52457e-014
rhumerus -33.7408 10.6389 -76.4107
rradius 41.2512
rwrist 18.6869
rhand -46.3665 -95.2001
rfingers 7.12502
rthumb -19.0981 66.1178
lclavicle 4.47266e-015 2.52457e-014
lhumerus 30.9252 -36.8265 20.7047
lradius 45.9356
lwrist 26.0665
lhand 4.84358 46.0793
lfingers 7.12502
lthumb 30.2208 73.6263
rfemur -103.156 -15.1365 43.7719
rtibia 94.5231
rfoot 5.63322 15.2886
rtoes -10.6648
lfemur -98.3218 18.3176 -33.1173
ltibia 78.6969
lfoot 29.7821 8.29746
ltoes 42.0554
